%TF.GenerationSoftware,KiCad,Pcbnew,9.0.7-9.0.7~ubuntu24.04.1*%
%TF.CreationDate,2026-03-15T11:58:35+02:00*%
%TF.ProjectId,ESP32-Bus-Pirate-Dock,45535033-322d-4427-9573-2d5069726174,v1.0*%
%TF.SameCoordinates,Original*%
%TF.FileFunction,Soldermask,Top*%
%TF.FilePolarity,Negative*%
%FSLAX46Y46*%
G04 Gerber Fmt 4.6, Leading zero omitted, Abs format (unit mm)*
G04 Created by KiCad (PCBNEW 9.0.7-9.0.7~ubuntu24.04.1) date 2026-03-15 11:58:35*
%MOMM*%
%LPD*%
G01*
G04 APERTURE LIST*
G04 Aperture macros list*
%AMRoundRect*
0 Rectangle with rounded corners*
0 $1 Rounding radius*
0 $2 $3 $4 $5 $6 $7 $8 $9 X,Y pos of 4 corners*
0 Add a 4 corners polygon primitive as box body*
4,1,4,$2,$3,$4,$5,$6,$7,$8,$9,$2,$3,0*
0 Add four circle primitives for the rounded corners*
1,1,$1+$1,$2,$3*
1,1,$1+$1,$4,$5*
1,1,$1+$1,$6,$7*
1,1,$1+$1,$8,$9*
0 Add four rect primitives between the rounded corners*
20,1,$1+$1,$2,$3,$4,$5,0*
20,1,$1+$1,$4,$5,$6,$7,0*
20,1,$1+$1,$6,$7,$8,$9,0*
20,1,$1+$1,$8,$9,$2,$3,0*%
G04 Aperture macros list end*
%ADD10RoundRect,0.250000X-0.400000X0.525000X-0.400000X-0.525000X0.400000X-0.525000X0.400000X0.525000X0*%
%ADD11RoundRect,0.243750X0.243750X0.456250X-0.243750X0.456250X-0.243750X-0.456250X0.243750X-0.456250X0*%
%ADD12RoundRect,0.250000X-0.250000X-0.475000X0.250000X-0.475000X0.250000X0.475000X-0.250000X0.475000X0*%
%ADD13RoundRect,0.250000X-1.250000X-0.550000X1.250000X-0.550000X1.250000X0.550000X-1.250000X0.550000X0*%
%ADD14R,1.600000X1.600000*%
%ADD15C,1.600000*%
%ADD16R,1.700000X1.700000*%
%ADD17C,1.700000*%
%ADD18RoundRect,0.150000X0.150000X-0.512500X0.150000X0.512500X-0.150000X0.512500X-0.150000X-0.512500X0*%
%ADD19RoundRect,0.250000X-0.475000X0.250000X-0.475000X-0.250000X0.475000X-0.250000X0.475000X0.250000X0*%
%ADD20R,1.200000X0.600000*%
%ADD21RoundRect,0.150000X-0.587500X-0.150000X0.587500X-0.150000X0.587500X0.150000X-0.587500X0.150000X0*%
%ADD22RoundRect,0.250000X0.262500X0.450000X-0.262500X0.450000X-0.262500X-0.450000X0.262500X-0.450000X0*%
%ADD23RoundRect,0.250000X-0.262500X-0.450000X0.262500X-0.450000X0.262500X0.450000X-0.262500X0.450000X0*%
%ADD24RoundRect,0.250000X0.250000X0.475000X-0.250000X0.475000X-0.250000X-0.475000X0.250000X-0.475000X0*%
%ADD25C,3.600000*%
%ADD26C,5.600000*%
%ADD27RoundRect,0.100000X-0.100000X0.637500X-0.100000X-0.637500X0.100000X-0.637500X0.100000X0.637500X0*%
%ADD28R,1.200000X1.750000*%
%ADD29RoundRect,0.112500X-0.637500X-0.112500X0.637500X-0.112500X0.637500X0.112500X-0.637500X0.112500X0*%
%ADD30RoundRect,0.112500X0.637500X0.112500X-0.637500X0.112500X-0.637500X-0.112500X0.637500X-0.112500X0*%
%ADD31RoundRect,0.250000X0.475000X-0.250000X0.475000X0.250000X-0.475000X0.250000X-0.475000X-0.250000X0*%
G04 APERTURE END LIST*
D10*
%TO.C,SW_1*%
X132410000Y-113820000D03*
X132410000Y-121780000D03*
X127910000Y-113820000D03*
X127910000Y-121780000D03*
%TD*%
D11*
%TO.C,D1*%
X140537500Y-65000000D03*
X138662500Y-65000000D03*
%TD*%
D12*
%TO.C,C7*%
X161000000Y-87750000D03*
X162900000Y-87750000D03*
%TD*%
%TO.C,C1*%
X177587501Y-105800000D03*
X179487499Y-105800000D03*
%TD*%
D13*
%TO.C,C2*%
X176037500Y-95150000D03*
X180437500Y-95150000D03*
%TD*%
D12*
%TO.C,C5*%
X159250000Y-98300000D03*
X161150000Y-98300000D03*
%TD*%
D14*
%TO.C,CN1*%
X135652500Y-109230000D03*
D15*
X135652500Y-106690000D03*
X135652500Y-104150000D03*
X135652500Y-101610000D03*
X135652500Y-99070000D03*
X135652500Y-96530000D03*
X135652500Y-93990000D03*
X135652500Y-91450000D03*
X135652500Y-88910000D03*
X135652500Y-86370000D03*
%TD*%
D16*
%TO.C,J1*%
X170600000Y-70460000D03*
D17*
X170600000Y-73000000D03*
X170600000Y-75540000D03*
X170600000Y-78080000D03*
X170600000Y-80620000D03*
X170600000Y-83160000D03*
X170600000Y-85700000D03*
X170600000Y-88240000D03*
X170600000Y-90780000D03*
X170600000Y-93320000D03*
X170600000Y-95860000D03*
X170600000Y-98400000D03*
X170600000Y-100940000D03*
X170600000Y-103480000D03*
X170600000Y-106020000D03*
X170600000Y-108560000D03*
X170600000Y-111100000D03*
X170600000Y-113640000D03*
X170600000Y-116180000D03*
X170600000Y-118720000D03*
X170600000Y-121260000D03*
X170600000Y-123800000D03*
%TD*%
D11*
%TO.C,D2*%
X140537500Y-68600000D03*
X138662500Y-68600000D03*
%TD*%
D16*
%TO.C,J4*%
X199800000Y-70420000D03*
D17*
X199800000Y-72960000D03*
X199800000Y-75500000D03*
X199800000Y-78040000D03*
X199800000Y-80580000D03*
X199800000Y-83120000D03*
X199800000Y-85660000D03*
X199800000Y-88200000D03*
X199800000Y-90740000D03*
X199800000Y-93280000D03*
X199800000Y-95820000D03*
X199800000Y-98360000D03*
X199800000Y-100900000D03*
X199800000Y-103440000D03*
X199800000Y-105980000D03*
X199800000Y-108520000D03*
X199800000Y-111060000D03*
X199800000Y-113600000D03*
X199800000Y-116140000D03*
X199800000Y-118680000D03*
X199800000Y-121220000D03*
X199800000Y-123760000D03*
%TD*%
D16*
%TO.C,J2*%
X167000000Y-70440000D03*
D17*
X167000000Y-72980000D03*
X167000000Y-75520000D03*
X167000000Y-78060000D03*
X167000000Y-80600000D03*
X167000000Y-83140000D03*
X167000000Y-85680000D03*
X167000000Y-88220000D03*
X167000000Y-90760000D03*
X167000000Y-93300000D03*
X167000000Y-95840000D03*
X167000000Y-98380000D03*
X167000000Y-100920000D03*
X167000000Y-103460000D03*
X167000000Y-106000000D03*
X167000000Y-108540000D03*
X167000000Y-111080000D03*
X167000000Y-113620000D03*
X167000000Y-116160000D03*
X167000000Y-118700000D03*
X167000000Y-121240000D03*
X167000000Y-123780000D03*
%TD*%
D16*
%TO.C,J3*%
X139027500Y-86360000D03*
D17*
X139027500Y-88900000D03*
X139027500Y-91440000D03*
X139027500Y-93980000D03*
X139027500Y-96520000D03*
X139027500Y-99060000D03*
X139027500Y-101600000D03*
X139027500Y-104140000D03*
X139027500Y-106680000D03*
X139027500Y-109220000D03*
%TD*%
D18*
%TO.C,U2*%
X177587500Y-103737500D03*
X178537500Y-103737500D03*
X179487500Y-103737500D03*
X179487500Y-101462500D03*
X177587500Y-101462500D03*
%TD*%
D19*
%TO.C,C9*%
X150550000Y-108150000D03*
X150550000Y-110050000D03*
%TD*%
D20*
%TO.C,U3*%
X154200000Y-85850000D03*
X154200000Y-86800000D03*
X154200000Y-87750000D03*
X156700000Y-87750000D03*
X156700000Y-86800000D03*
X156700000Y-85850000D03*
%TD*%
D21*
%TO.C,Q1*%
X144972500Y-75500000D03*
X144972500Y-77400000D03*
X146847501Y-76450000D03*
%TD*%
D22*
%TO.C,R3*%
X145112500Y-72200000D03*
X143287500Y-72200000D03*
%TD*%
D11*
%TO.C,D3*%
X140537500Y-72200000D03*
X138662500Y-72200000D03*
%TD*%
D16*
%TO.C,J6*%
X193460000Y-70450000D03*
D17*
X193460000Y-72990000D03*
X193460000Y-75530000D03*
X193460000Y-78070000D03*
X193460000Y-80610000D03*
X193460000Y-83150000D03*
X193460000Y-85690000D03*
X193460000Y-88230000D03*
X193460000Y-90770000D03*
X193460000Y-93310000D03*
X193460000Y-95850000D03*
X193460000Y-98390000D03*
X193460000Y-100930000D03*
X193460000Y-103470000D03*
X193460000Y-106010000D03*
X193460000Y-108550000D03*
X193460000Y-111090000D03*
X193460000Y-113630000D03*
X193460000Y-116170000D03*
X193460000Y-118710000D03*
X193460000Y-121250000D03*
X193460000Y-123790000D03*
%TD*%
D23*
%TO.C,R5*%
X150487500Y-76400000D03*
X152312500Y-76400000D03*
%TD*%
%TO.C,R1*%
X143287500Y-65000000D03*
X145112500Y-65000000D03*
%TD*%
%TO.C,R2*%
X143287500Y-68600000D03*
X145112500Y-68600000D03*
%TD*%
D24*
%TO.C,C4*%
X157250000Y-98300000D03*
X155350000Y-98300000D03*
%TD*%
D25*
%TO.C,H1*%
X199020000Y-129370000D03*
D26*
X199020000Y-129370000D03*
%TD*%
D27*
%TO.C,U7*%
X150575000Y-100350000D03*
X149925000Y-100350000D03*
X149275000Y-100350000D03*
X148625000Y-100350000D03*
X147975000Y-100350000D03*
X147325000Y-100350000D03*
X146675000Y-100350000D03*
X146025000Y-100350000D03*
X146025000Y-106075000D03*
X146675000Y-106075000D03*
X147325000Y-106075000D03*
X147975000Y-106075000D03*
X148625000Y-106075000D03*
X149275000Y-106075000D03*
X149925000Y-106075000D03*
X150575000Y-106075000D03*
%TD*%
D23*
%TO.C,R4*%
X150487500Y-74000000D03*
X152312500Y-74000000D03*
%TD*%
D27*
%TO.C,U6*%
X150625000Y-89700000D03*
X149975000Y-89700000D03*
X149325000Y-89700000D03*
X148675000Y-89700000D03*
X148025000Y-89700000D03*
X147375000Y-89700000D03*
X146725000Y-89700000D03*
X146075000Y-89700000D03*
X146075000Y-95425000D03*
X146725000Y-95425000D03*
X147375000Y-95425000D03*
X148025000Y-95425000D03*
X148675000Y-95425000D03*
X149325000Y-95425000D03*
X149975000Y-95425000D03*
X150625000Y-95425000D03*
%TD*%
D28*
%TO.C,SW1*%
X160050000Y-64500000D03*
X158050000Y-64500000D03*
X154050000Y-64500000D03*
X152050000Y-64500000D03*
X152050000Y-70300000D03*
X154050000Y-70300000D03*
X158050000Y-70300000D03*
X160050000Y-70300000D03*
%TD*%
D25*
%TO.C,H4*%
X128200000Y-64800000D03*
D26*
X128200000Y-64800000D03*
%TD*%
D29*
%TO.C,U4*%
X155100000Y-100150000D03*
X155100000Y-100800000D03*
X155100000Y-101450000D03*
X155100000Y-102100000D03*
X155100000Y-102750000D03*
X155100000Y-103400000D03*
X155100000Y-104050000D03*
X155100000Y-104700000D03*
X155100000Y-105350000D03*
X155100000Y-106000000D03*
X160900000Y-106000000D03*
X160900000Y-105350000D03*
X160900000Y-104700000D03*
X160900000Y-104050000D03*
X160900000Y-103400000D03*
X160900000Y-102750000D03*
X160900000Y-102100000D03*
X160900000Y-101450000D03*
X160900000Y-100800000D03*
X160900000Y-100150000D03*
%TD*%
D12*
%TO.C,C8*%
X151750000Y-98300000D03*
X153650000Y-98300000D03*
%TD*%
D30*
%TO.C,U5*%
X160600000Y-95300000D03*
X160600000Y-94650000D03*
X160600000Y-94000000D03*
X160600000Y-93350000D03*
X160600000Y-92700000D03*
X160600000Y-92050000D03*
X160600000Y-91400000D03*
X160600000Y-90750000D03*
X160600000Y-90100000D03*
X160600000Y-89450000D03*
X154800000Y-89450000D03*
X154800000Y-90100000D03*
X154800000Y-90750000D03*
X154800000Y-91400000D03*
X154800000Y-92050000D03*
X154800000Y-92700000D03*
X154800000Y-93350000D03*
X154800000Y-94000000D03*
X154800000Y-94650000D03*
X154800000Y-95300000D03*
%TD*%
D25*
%TO.C,H3*%
X199200000Y-64800000D03*
D26*
X199200000Y-64800000D03*
%TD*%
D12*
%TO.C,C3*%
X177587501Y-99350000D03*
X179487499Y-99350000D03*
%TD*%
D16*
%TO.C,J7*%
X150500000Y-130230000D03*
D17*
X150500000Y-127690000D03*
X153040000Y-130230000D03*
X153040000Y-127690000D03*
X155580000Y-130230000D03*
X155580000Y-127690000D03*
%TD*%
D31*
%TO.C,C6*%
X152200000Y-87750000D03*
X152200000Y-85850000D03*
%TD*%
D16*
%TO.C,J5*%
X196110000Y-70450000D03*
D17*
X196110000Y-72990000D03*
X196110000Y-75530000D03*
X196110000Y-78070000D03*
X196110000Y-80610000D03*
X196110000Y-83150000D03*
X196110000Y-85690000D03*
X196110000Y-88230000D03*
X196110000Y-90770000D03*
X196110000Y-93310000D03*
X196110000Y-95850000D03*
X196110000Y-98390000D03*
X196110000Y-100930000D03*
X196110000Y-103470000D03*
X196110000Y-106010000D03*
X196110000Y-108550000D03*
X196110000Y-111090000D03*
X196110000Y-113630000D03*
X196110000Y-116170000D03*
X196110000Y-118710000D03*
X196110000Y-121250000D03*
X196110000Y-123790000D03*
%TD*%
D25*
%TO.C,H2*%
X128320000Y-129360000D03*
D26*
X128320000Y-129360000D03*
%TD*%
M02*
