%TF.GenerationSoftware,KiCad,Pcbnew,9.0.7-9.0.7~ubuntu24.04.1*%
%TF.CreationDate,2026-03-15T11:58:35+02:00*%
%TF.ProjectId,ESP32-Bus-Pirate-Dock,45535033-322d-4427-9573-2d5069726174,v1.0*%
%TF.SameCoordinates,Original*%
%TF.FileFunction,Soldermask,Bot*%
%TF.FilePolarity,Negative*%
%FSLAX46Y46*%
G04 Gerber Fmt 4.6, Leading zero omitted, Abs format (unit mm)*
G04 Created by KiCad (PCBNEW 9.0.7-9.0.7~ubuntu24.04.1) date 2026-03-15 11:58:35*
%MOMM*%
%LPD*%
G01*
G04 APERTURE LIST*
%ADD10R,1.600000X1.600000*%
%ADD11C,1.600000*%
%ADD12R,1.700000X1.700000*%
%ADD13C,1.700000*%
%ADD14C,3.600000*%
%ADD15C,5.600000*%
G04 APERTURE END LIST*
D10*
%TO.C,CN1*%
X135652500Y-109230000D03*
D11*
X135652500Y-106690000D03*
X135652500Y-104150000D03*
X135652500Y-101610000D03*
X135652500Y-99070000D03*
X135652500Y-96530000D03*
X135652500Y-93990000D03*
X135652500Y-91450000D03*
X135652500Y-88910000D03*
X135652500Y-86370000D03*
%TD*%
D12*
%TO.C,J1*%
X170600000Y-70460000D03*
D13*
X170600000Y-73000000D03*
X170600000Y-75540000D03*
X170600000Y-78080000D03*
X170600000Y-80620000D03*
X170600000Y-83160000D03*
X170600000Y-85700000D03*
X170600000Y-88240000D03*
X170600000Y-90780000D03*
X170600000Y-93320000D03*
X170600000Y-95860000D03*
X170600000Y-98400000D03*
X170600000Y-100940000D03*
X170600000Y-103480000D03*
X170600000Y-106020000D03*
X170600000Y-108560000D03*
X170600000Y-111100000D03*
X170600000Y-113640000D03*
X170600000Y-116180000D03*
X170600000Y-118720000D03*
X170600000Y-121260000D03*
X170600000Y-123800000D03*
%TD*%
D12*
%TO.C,J4*%
X199800000Y-70420000D03*
D13*
X199800000Y-72960000D03*
X199800000Y-75500000D03*
X199800000Y-78040000D03*
X199800000Y-80580000D03*
X199800000Y-83120000D03*
X199800000Y-85660000D03*
X199800000Y-88200000D03*
X199800000Y-90740000D03*
X199800000Y-93280000D03*
X199800000Y-95820000D03*
X199800000Y-98360000D03*
X199800000Y-100900000D03*
X199800000Y-103440000D03*
X199800000Y-105980000D03*
X199800000Y-108520000D03*
X199800000Y-111060000D03*
X199800000Y-113600000D03*
X199800000Y-116140000D03*
X199800000Y-118680000D03*
X199800000Y-121220000D03*
X199800000Y-123760000D03*
%TD*%
D12*
%TO.C,J2*%
X167000000Y-70440000D03*
D13*
X167000000Y-72980000D03*
X167000000Y-75520000D03*
X167000000Y-78060000D03*
X167000000Y-80600000D03*
X167000000Y-83140000D03*
X167000000Y-85680000D03*
X167000000Y-88220000D03*
X167000000Y-90760000D03*
X167000000Y-93300000D03*
X167000000Y-95840000D03*
X167000000Y-98380000D03*
X167000000Y-100920000D03*
X167000000Y-103460000D03*
X167000000Y-106000000D03*
X167000000Y-108540000D03*
X167000000Y-111080000D03*
X167000000Y-113620000D03*
X167000000Y-116160000D03*
X167000000Y-118700000D03*
X167000000Y-121240000D03*
X167000000Y-123780000D03*
%TD*%
D12*
%TO.C,J3*%
X139027500Y-86360000D03*
D13*
X139027500Y-88900000D03*
X139027500Y-91440000D03*
X139027500Y-93980000D03*
X139027500Y-96520000D03*
X139027500Y-99060000D03*
X139027500Y-101600000D03*
X139027500Y-104140000D03*
X139027500Y-106680000D03*
X139027500Y-109220000D03*
%TD*%
D12*
%TO.C,J6*%
X193460000Y-70450000D03*
D13*
X193460000Y-72990000D03*
X193460000Y-75530000D03*
X193460000Y-78070000D03*
X193460000Y-80610000D03*
X193460000Y-83150000D03*
X193460000Y-85690000D03*
X193460000Y-88230000D03*
X193460000Y-90770000D03*
X193460000Y-93310000D03*
X193460000Y-95850000D03*
X193460000Y-98390000D03*
X193460000Y-100930000D03*
X193460000Y-103470000D03*
X193460000Y-106010000D03*
X193460000Y-108550000D03*
X193460000Y-111090000D03*
X193460000Y-113630000D03*
X193460000Y-116170000D03*
X193460000Y-118710000D03*
X193460000Y-121250000D03*
X193460000Y-123790000D03*
%TD*%
D14*
%TO.C,H1*%
X199020000Y-129370000D03*
D15*
X199020000Y-129370000D03*
%TD*%
D14*
%TO.C,H4*%
X128200000Y-64800000D03*
D15*
X128200000Y-64800000D03*
%TD*%
D14*
%TO.C,H3*%
X199200000Y-64800000D03*
D15*
X199200000Y-64800000D03*
%TD*%
D12*
%TO.C,J7*%
X150500000Y-130230000D03*
D13*
X150500000Y-127690000D03*
X153040000Y-130230000D03*
X153040000Y-127690000D03*
X155580000Y-130230000D03*
X155580000Y-127690000D03*
%TD*%
D12*
%TO.C,J5*%
X196110000Y-70450000D03*
D13*
X196110000Y-72990000D03*
X196110000Y-75530000D03*
X196110000Y-78070000D03*
X196110000Y-80610000D03*
X196110000Y-83150000D03*
X196110000Y-85690000D03*
X196110000Y-88230000D03*
X196110000Y-90770000D03*
X196110000Y-93310000D03*
X196110000Y-95850000D03*
X196110000Y-98390000D03*
X196110000Y-100930000D03*
X196110000Y-103470000D03*
X196110000Y-106010000D03*
X196110000Y-108550000D03*
X196110000Y-111090000D03*
X196110000Y-113630000D03*
X196110000Y-116170000D03*
X196110000Y-118710000D03*
X196110000Y-121250000D03*
X196110000Y-123790000D03*
%TD*%
D14*
%TO.C,H2*%
X128320000Y-129360000D03*
D15*
X128320000Y-129360000D03*
%TD*%
M02*
