M48
; DRILL file {KiCad 9.0.7-9.0.7~ubuntu24.04.1} date 2026-03-15T11:58:38+0200
; FORMAT={-:-/ absolute / metric / decimal}
; #@! TF.CreationDate,2026-03-15T11:58:38+02:00
; #@! TF.GenerationSoftware,Kicad,Pcbnew,9.0.7-9.0.7~ubuntu24.04.1
; #@! TF.FileFunction,Plated,1,4,PTH
FMAT,2
METRIC
; #@! TA.AperFunction,Plated,PTH,ViaDrill
T1C0.200
; #@! TA.AperFunction,Plated,PTH,ComponentDrill
T2C1.000
; #@! TA.AperFunction,Plated,PTH,ComponentDrill
T3C1.000
; #@! TA.AperFunction,Plated,PTH,ComponentDrill
T4C3.200
%
G90
G05
T1
X129.243Y-113.815
X129.243Y-121.815
X132.41Y-113.82
X132.41Y-121.78
X137.35Y-92.65
X137.35Y-97.7
X137.35Y-100.35
X137.4Y-90.15
X137.4Y-95.25
X137.4Y-105.4
X137.45Y-102.85
X137.45Y-108.0
X139.1Y-74.0
X141.25Y-87.5
X141.43Y-102.82
X141.46Y-105.64
X141.53Y-89.45
X141.6Y-95.66
X141.6Y-100.03
X141.65Y-97.83
X141.68Y-92.59
X144.98Y-78.65
X146.02Y-99.14
X146.07Y-90.83
X146.7Y-104.7
X147.1Y-77.5
X147.3Y-101.6
X147.375Y-96.605
X148.1Y-90.8
X148.55Y-107.45
X148.6Y-105.0
X148.79Y-96.6
X149.2Y-99.0
X149.35Y-103.4
X149.99Y-96.61
X150.03Y-90.81
X150.25Y-111.15
X150.4Y-102.5
X150.6Y-88.4
X150.7Y-86.8
X151.8Y-106.0
X151.8Y-108.2
X152.15Y-101.9
X152.2Y-84.85
X152.25Y-106.7
X152.45Y-96.9
X153.0Y-62.1
X153.1Y-93.4
X153.47Y-89.47
X153.5Y-94.0
X153.5Y-95.3
X153.6Y-92.7
X153.79Y-101.41
X153.8Y-74.1
X153.82Y-100.15
X153.9Y-102.11
X154.1Y-63.0
X155.4Y-86.0
X155.95Y-94.65
X156.05Y-106.75
X156.6Y-100.8
X156.75Y-82.85
X157.25Y-100.0
X157.5Y-88.75
X157.9Y-65.9
X159.2Y-94.7
X159.3Y-96.9
X159.4Y-87.05
X159.6Y-100.8
X160.05Y-65.95
X160.1Y-96.6
X161.0Y-86.4
X161.22Y-79.03
X161.6Y-96.1
X161.9Y-90.1
X161.9Y-91.4
X161.9Y-92.7
X161.9Y-94.0
X162.139Y-107.7
X162.25Y-92.05
X162.3Y-90.75
X162.3Y-93.4
X164.25Y-86.6
X165.65Y-68.65
X170.1Y-65.7
X173.85Y-74.25
X176.4Y-103.8
X177.5Y-98.0
X177.6Y-107.5
X178.688Y-98.8
X178.688Y-101.8
X178.688Y-105.2
X178.688Y-106.45
X180.188Y-104.05
T2
X135.653Y-86.37
X135.653Y-88.91
X135.653Y-91.45
X135.653Y-93.99
X135.653Y-96.53
X135.653Y-99.07
X135.653Y-101.61
X135.653Y-104.15
X135.653Y-106.69
X135.653Y-109.23
T3
X139.028Y-86.36
X139.028Y-88.9
X139.028Y-91.44
X139.028Y-93.98
X139.028Y-96.52
X139.028Y-99.06
X139.028Y-101.6
X139.028Y-104.14
X139.028Y-106.68
X139.028Y-109.22
X150.5Y-127.69
X150.5Y-130.23
X153.04Y-127.69
X153.04Y-130.23
X155.58Y-127.69
X155.58Y-130.23
X167.0Y-70.44
X167.0Y-72.98
X167.0Y-75.52
X167.0Y-78.06
X167.0Y-80.6
X167.0Y-83.14
X167.0Y-85.68
X167.0Y-88.22
X167.0Y-90.76
X167.0Y-93.3
X167.0Y-95.84
X167.0Y-98.38
X167.0Y-100.92
X167.0Y-103.46
X167.0Y-106.0
X167.0Y-108.54
X167.0Y-111.08
X167.0Y-113.62
X167.0Y-116.16
X167.0Y-118.7
X167.0Y-121.24
X167.0Y-123.78
X170.6Y-70.46
X170.6Y-73.0
X170.6Y-75.54
X170.6Y-78.08
X170.6Y-80.62
X170.6Y-83.16
X170.6Y-85.7
X170.6Y-88.24
X170.6Y-90.78
X170.6Y-93.32
X170.6Y-95.86
X170.6Y-98.4
X170.6Y-100.94
X170.6Y-103.48
X170.6Y-106.02
X170.6Y-108.56
X170.6Y-111.1
X170.6Y-113.64
X170.6Y-116.18
X170.6Y-118.72
X170.6Y-121.26
X170.6Y-123.8
X193.46Y-70.45
X193.46Y-72.99
X193.46Y-75.53
X193.46Y-78.07
X193.46Y-80.61
X193.46Y-83.15
X193.46Y-85.69
X193.46Y-88.23
X193.46Y-90.77
X193.46Y-93.31
X193.46Y-95.85
X193.46Y-98.39
X193.46Y-100.93
X193.46Y-103.47
X193.46Y-106.01
X193.46Y-108.55
X193.46Y-111.09
X193.46Y-113.63
X193.46Y-116.17
X193.46Y-118.71
X193.46Y-121.25
X193.46Y-123.79
X196.11Y-70.45
X196.11Y-72.99
X196.11Y-75.53
X196.11Y-78.07
X196.11Y-80.61
X196.11Y-83.15
X196.11Y-85.69
X196.11Y-88.23
X196.11Y-90.77
X196.11Y-93.31
X196.11Y-95.85
X196.11Y-98.39
X196.11Y-100.93
X196.11Y-103.47
X196.11Y-106.01
X196.11Y-108.55
X196.11Y-111.09
X196.11Y-113.63
X196.11Y-116.17
X196.11Y-118.71
X196.11Y-121.25
X196.11Y-123.79
X199.8Y-70.42
X199.8Y-72.96
X199.8Y-75.5
X199.8Y-78.04
X199.8Y-80.58
X199.8Y-83.12
X199.8Y-85.66
X199.8Y-88.2
X199.8Y-90.74
X199.8Y-93.28
X199.8Y-95.82
X199.8Y-98.36
X199.8Y-100.9
X199.8Y-103.44
X199.8Y-105.98
X199.8Y-108.52
X199.8Y-111.06
X199.8Y-113.6
X199.8Y-116.14
X199.8Y-118.68
X199.8Y-121.22
X199.8Y-123.76
T4
X128.2Y-64.8
X128.32Y-129.36
X199.02Y-129.37
X199.2Y-64.8
M30
